<?xml version="1.0" encoding="UTF-8" standalone="no"?>
<!-- Created with Inkscape (http://www.inkscape.org/) -->

<svg
   width="210mm"
   height="297mm"
   viewBox="0 0 210 297"
   version="1.1"
   id="svg1"
   xml:space="preserve"
   xmlns="http://www.w3.org/2000/svg"
   xmlns:svg="http://www.w3.org/2000/svg"><defs
     id="defs1" /><g
     id="layer1"><path
       style="fill:#1f4e79;fill-opacity:1"
       d="m 74.520217,262.78754 c -0.395326,-0.39532 -0.11674,-0.99777 1.001374,-2.16548 3.699341,-3.86343 5.55131,-7.62613 6.51433,-13.23534 0.611595,-3.5623 0.601739,-1.88139 0.536167,-91.44086 -0.03868,-52.8256 -0.03788,-52.91144 0.496539,-53.31354 0.294403,-0.22152 2.634781,-1.16955 5.200838,-2.10674 3.404844,-1.243543 4.530937,-1.757559 4.167357,-1.902234 -0.352514,-0.140271 -0.227402,-0.188642 0.427839,-0.16541 0.509323,0.01806 2.031015,-0.362527 3.381538,-0.845744 1.350523,-0.483218 2.517445,-0.816629 2.593159,-0.740914 0.07572,0.07572 0.2138,36.138082 0.306855,80.138592 0.09305,44.00052 0.17629,81.17155 0.184965,82.6023 0.01383,2.2805 -0.04757,2.64765 -0.497816,2.97656 -0.425169,0.31061 -2.547127,0.3752 -12.325173,0.3752 -6.496371,0 -11.890958,-0.0794 -11.987972,-0.17639 z m 29.781153,-0.007 c -1.4497,-0.28823 -1.36107,5.54009 -1.27873,-84.09077 0.0544,-59.18065 0.15848,-82.972952 0.36476,-83.358395 0.33549,-0.626865 1.11312,-1.044529 4.55851,-2.448354 5.22248,-2.127903 6.06857,-2.505156 5.97133,-2.662491 -0.055,-0.08896 0.15656,-0.177628 0.47008,-0.197039 0.31353,-0.01941 1.12899,-0.254222 1.81214,-0.521802 0.68314,-0.267579 1.31982,-0.408769 1.41484,-0.313755 0.26706,0.26706 0.13417,172.119976 -0.13364,172.824376 -0.12859,0.3382 -0.40917,0.68222 -0.62351,0.76447 -0.45792,0.17572 -11.67399,0.17908 -12.55578,0.004 z m 18.26219,-10.61681 c -0.32774,-0.0465 -0.73767,-0.3442 -0.91096,-0.66145 -0.24134,-0.44187 -0.31508,-16.2393 -0.31514,-67.51642 -5e-5,-36.81677 -0.0664,-72.53552 -0.14738,-79.37499 -0.081,-6.839483 -0.0878,-13.730957 -0.015,-15.314391 0.1534,-3.338505 -0.0997,-3.017061 3.7719,-4.789971 3.01894,-1.38245 5.93455,-2.760575 11.54854,-5.458672 2.38712,-1.14726 4.44095,-2.085927 4.56406,-2.085927 0.47217,0 0.17994,1.566623 -0.82095,4.401158 -1.81019,5.126451 -1.88717,6.135454 -2.0259,26.555093 -0.23518,34.61422 -0.12744,113.59244 0.15776,115.64613 0.40074,2.88571 1.05641,5.7095 1.76363,7.5955 1.30822,3.48874 3.57747,7.36369 4.11704,7.03022 0.18108,-0.11192 0.21267,-0.0551 0.0846,0.15216 -0.24664,0.39909 2.19554,2.98428 2.5893,2.74092 0.14354,-0.0887 0.18742,-0.0423 0.0975,0.10317 -0.0899,0.14545 0.60215,0.81522 1.53789,1.48837 3.14141,2.25988 7.02397,3.95325 13.75733,6.00024 2.03729,0.61935 3.78916,1.26004 3.89304,1.42375 0.64649,1.01887 -1.78406,1.31029 -14.47637,1.73573 -8.24189,0.27626 -27.9759,0.49909 -29.17089,0.32938 z M 51.765988,251.952 c -0.02422,-0.0175 -3.377783,-0.10628 -7.452366,-0.19735 -8.094599,-0.18093 -12.528755,-0.49086 -13.758333,-0.96168 -0.762838,-0.2921 -0.773749,-0.31862 -0.280159,-0.68104 0.282475,-0.20741 0.61786,-0.37711 0.745301,-0.37711 0.279812,0 6.778389,-2.26225 8.253315,-2.8731 12.451453,-5.15685 17.867367,-11.96559 19.602365,-24.64357 0.48687,-3.55765 0.877786,-25.4 0.454589,-25.4 -0.136271,0 -0.391911,0.31637 -0.568089,0.70304 -0.513292,1.12655 -4.810871,7.83624 -5.452486,8.51281 -0.469807,0.4954 -1.361168,0.7715 -4.526177,1.402 -6.820171,1.35864 -16.566098,2.84913 -23.9172,3.65779 -7.917187,0.87093 -10.245609,1.09143 -16.007291,1.51594 -7.8325061,0.57708 -28.836253,0.65055 -30.162498,0.10551 -0.701528,-0.2883 -0.743372,-0.36322 -0.36015,-0.64482 0.23848,-0.17524 1.488637,-0.58037 2.778125,-0.90029 1.289488,-0.31991 6.214055,-1.53472 10.9434822,-2.69957 12.1525816,-2.99317 32.4722148,-8.56657 43.1270808,-11.82917 8.435956,-2.58316 17.21489,-5.58592 23.887585,-8.17057 0.443323,-0.17172 0.469498,-0.85118 0.431367,-11.19743 -0.04547,-12.33716 -0.377993,-42.22614 -0.62442,-56.12607 -0.127315,-7.18129 -0.08922,-9.26676 0.178636,-9.77818 0.231125,-0.44129 0.917228,-0.86933 2.136393,-1.33284 0.987759,-0.37554 1.704805,-0.77391 1.593434,-0.88529 -0.11137,-0.11137 -0.01831,-0.13181 0.2068,-0.0454 0.22511,0.0864 1.233512,-0.13929 2.240893,-0.5015 6.096379,-2.19198 12.47764,-4.27063 12.859587,-4.18891 0.369531,0.0791 0.45893,0.50592 0.529167,2.52666 0.04648,1.33735 0.08451,34.36406 0.08451,73.3927 0,51.60912 -0.08003,71.04121 -0.293456,71.2547 -0.20568,0.20574 -4.228644,0.30865 -13.449715,0.34404 -7.235943,0.0278 -13.176075,0.0362 -13.200294,0.0187 z m 88.857782,-34.33001 c -0.46832,-0.34244 -0.50009,-0.94054 -0.56565,-10.64947 -0.0556,-8.23586 0.001,-10.39475 0.28462,-10.82884 0.39277,-0.60144 0.84813,-0.81532 5.90381,-2.77305 2.18204,-0.84496 3.44164,-1.46564 3.33255,-1.64215 -0.10311,-0.16684 -0.051,-0.20689 0.12646,-0.0972 0.2507,0.15494 5.24224,-1.83207 10.36326,-4.12536 0.65485,-0.29326 1.54782,-0.69301 1.98438,-0.88835 7.62753,-3.41289 14.29697,-6.71694 14.81762,-7.34067 0.14605,-0.17496 0.44371,-0.35513 0.66146,-0.40038 0.60691,-0.12612 6.96693,-3.91215 9.78863,-5.82705 2.80027,-1.90035 7.36672,-5.3966 10.18645,-7.79914 3.00119,-2.55714 9.42873,-9.17025 9.22823,-9.49466 -0.10029,-0.16228 -0.063,-0.22081 0.0831,-0.1305 0.32747,0.20238 1.01335,-0.53869 3.62662,-3.91846 1.12518,-1.45521 2.19958,-2.83573 2.38754,-3.06782 0.90704,-1.11996 2.62207,-3.81891 2.62207,-4.12635 0,-0.19055 0.0876,-0.34646 0.19474,-0.34646 0.51487,0 4.15264,-6.73803 6.07092,-11.24479 1.19313,-2.80311 3.70031,-10.15951 3.70031,-10.8572 0,-0.5538 0.74785,-1.97509 1.03925,-1.97509 0.85591,0 1.03463,3.85231 0.41771,9.00373 -1.30323,10.88217 -4.43026,20.98834 -9.3287,30.14917 -3.62613,6.7814 -9.89075,15.57683 -15.17425,21.30439 -9.11226,9.87811 -23.62087,20.75145 -37.48181,28.09038 -1.63951,0.86807 -2.89329,1.66595 -2.78619,1.77305 0.10711,0.10711 0.0171,0.12659 -0.19995,0.0433 -0.21708,-0.0833 -1.04689,0.16451 -1.84402,0.55069 -3.88829,1.88372 -9.94818,4.2595 -15.19598,5.95756 -3.57597,1.1571 -3.56643,1.15561 -4.24319,0.66075 z m 59.1663,-52.75227 c 0.32911,-0.41965 0.31975,-0.42901 -0.0999,-0.0999 -0.25467,0.19972 -0.46302,0.40808 -0.46302,0.46302 0,0.21776 0.21727,0.0776 0.56291,-0.36312 z m 2.21521,-2.18282 c 0.26339,-0.29104 0.41936,-0.52916 0.3466,-0.52916 -0.0728,0 -0.34779,0.23812 -0.61118,0.52916 -0.26339,0.29105 -0.41936,0.52917 -0.3466,0.52917 0.0728,0 0.34779,-0.23812 0.61118,-0.52917 z m -223.533462,46.43602 c -0.396614,-0.39661 -0.436318,-2.03628 -0.436318,-18.01876 v -17.58244 l 0.678683,-0.25803 c 0.856579,-0.32567 14.960326,-0.33084 16.3607365,-0.006 0.5676706,0.13168 1.2820455,0.48926 1.5874999,0.79462 0.5486125,0.54845 0.5564208,0.73401 0.6415875,15.24725 0.06376,10.86525 0.0063,14.78834 -0.2205999,15.06174 -0.3837148,0.46235 -0.3771486,0.46043 -13.094782,3.83004 -2.182812,0.57835 -4.218891,1.12273 -4.524619,1.20973 -0.341369,0.0971 -0.724237,-0.0102 -0.992188,-0.27815 z m 20.64320582,-5.35946 C -1.0094813,203.5547 -1.309915,174.9661 -1.3620381,158.36728 c -0.022467,-7.15473 0.052129,-9.82607 0.2807586,-10.05417 0.22799937,-0.22747 3.1586847,-0.31063 10.9468788,-0.31063 9.8097067,0 10.7118087,0.0379 11.6179847,0.48855 0.540354,0.26871 1.039321,0.68543 1.108817,0.92604 0.213088,0.73779 0.296622,47.51245 0.08544,47.84324 -0.250572,0.3925 -3.06814,1.30896 -8.791303,2.85951 -8.1677195,2.21284 -11.362739,3.09676 -12.5486943,3.47166 -1.30525974,0.41262 -2.04511133,0.46985 -2.22282188,0.17193 z M 26.069941,195.69362 c -0.05671,-0.1819 -0.16592,-16.13389 -0.24268,-35.44886 -0.123963,-31.19235 -0.09461,-35.1631 0.26261,-35.52031 0.34659,-0.34659 1.881726,-0.40218 11.107398,-0.40218 11.532952,0 12.278031,0.0797 12.683504,1.35727 0.262287,0.82639 0.31606,62.94846 0.05463,63.11003 -0.113549,0.0702 -0.153721,0.21292 -0.08927,0.3172 0.06445,0.10428 -0.08244,0.19753 -0.326413,0.2072 -0.243978,0.01 -4.253595,1.18065 -8.910262,2.60215 -9.899218,3.02186 -13.626947,4.10823 -14.096808,4.10823 -0.186775,0 -0.385992,-0.14883 -0.442706,-0.33073 z m 115.104779,-3.33525 c -0.31916,-0.5164 -0.39467,-6.30968 -0.43086,-33.0548 -0.0269,-19.84584 0.0463,-28.22343 0.24845,-28.46706 0.15758,-0.18987 0.19824,-0.43348 0.0904,-0.54136 -0.10788,-0.10788 -0.0771,-0.16174 0.0684,-0.11969 0.14552,0.042 0.64562,-0.12663 1.11134,-0.37483 0.73156,-0.38988 1.72597,-0.45127 7.30979,-0.45127 5.68949,0 6.50649,0.0524 6.82616,0.4376 0.30214,0.36411 0.3659,4.84084 0.37965,26.65677 0.009,14.42054 -0.0504,26.87401 -0.13229,27.67437 l -0.14882,1.45521 -3.97505,1.98438 c -5.76849,2.87968 -10.39422,5.02708 -10.82886,5.02708 -0.20812,0 -0.44137,-0.10188 -0.51832,-0.2264 z m 19.56918,-7.95365 c -0.35816,-0.57951 -0.56313,-5.59708 -0.30592,-7.48898 0.0736,-0.54156 0.0207,-1.0546 -0.11765,-1.14009 -0.13833,-0.0855 -0.25151,-0.27451 -0.25151,-0.42003 0,-0.14552 0.0893,-0.20949 0.19844,-0.14215 0.10914,0.0673 0.16991,-1.02697 0.13504,-2.43178 -0.0349,-1.40482 -0.0493,-3.44718 -0.0321,-4.53859 0.0172,-1.0914 0.0209,-2.25226 0.008,-2.57968 -0.0126,-0.32743 -0.0115,-0.74414 0.003,-0.92604 0.014,-0.18191 0.0644,-2.77152 0.11193,-5.75469 0.0616,-3.8696 0.006,-5.31023 -0.19382,-5.02709 -0.21684,0.30712 -0.22969,0.2772 -0.0568,-0.13229 0.12287,-0.29104 0.24986,-13.03073 0.28219,-28.31041 0.0323,-15.27969 0.11726,-28.022675 0.18872,-28.317749 0.0715,-0.295074 0.4938,-0.885116 0.93854,-1.311205 l 0.80862,-0.774706 10.45316,-0.02452 c 9.96278,-0.02337 10.47454,-8.59e-4 10.90891,0.479814 0.42775,0.473341 0.44988,2.823477 0.36011,38.245096 -0.0544,21.46532 -0.19769,37.93417 -0.33226,38.18925 -0.34798,0.65959 -4.7058,3.1661 -17.79671,10.23624 -4.43597,2.39577 -5.02192,2.6352 -5.30968,2.1696 z m 28.6555,-16.8912 c -0.60398,-0.12799 -0.64753,-0.7013 -0.57758,-7.60479 0.0339,-3.34698 0.0673,-26.49058 0.0741,-51.43021 l 0.0125,-45.344803 0.93878,-0.885384 0.93878,-0.885384 10.83526,-0.0719 10.83527,-0.0719 -0.007,1.719791 c -0.004,0.945885 0.0457,20.070406 0.1096,42.49894 0.10996,38.58288 0.0911,40.82009 -0.34957,41.53958 -0.5991,0.97807 -5.87754,6.57935 -8.61713,9.14417 -6.42796,6.01789 -13.34701,11.57126 -14.19338,11.39189 z M 82.037633,124.96168 c 0.0127,-0.30822 0.07539,-0.37092 0.159852,-0.15985 0.07643,0.191 0.06703,0.4192 -0.02089,0.50712 -0.08792,0.0879 -0.150453,-0.0683 -0.138964,-0.34727 z M 10.050082,114.91752 c -8.0638031,-0.79469 -14.4366303,-2.5109 -20.565607,-5.53834 -5.675907,-2.80364 -11.382245,-7.54727 -10.825207,-8.99889 0.110113,-0.28694 0.545577,-0.25841 2.335478,0.15304 11.972189,2.75209 27.9075473,2.93204 43.078252,0.48645 10.026678,-1.616339 14.066316,-2.419514 21.166665,-4.208423 8.848688,-2.229397 9.61711,-2.449873 18.123958,-5.200147 6.986124,-2.258622 8.351685,-2.765623 8.183203,-3.038233 -0.07749,-0.125386 0.01579,-0.167846 0.207304,-0.09436 0.389327,0.149399 6.085562,-1.904444 13.437617,-4.845087 9.090999,-3.636178 26.256235,-11.3709 32.543745,-14.664338 14.09181,-7.381374 32.25224,-18.131661 31.81765,-18.834838 -0.0822,-0.132967 -0.0261,-0.165527 0.12469,-0.07236 0.15075,0.09317 0.67516,-0.102845 1.16536,-0.435593 3.94248,-2.676183 6.99848,-4.794766 7.10897,-4.928322 0.0728,-0.08795 0.45082,-0.362433 0.84013,-0.609965 1.17977,-0.75012 7.12854,-5.589816 8.75101,-7.119491 0.83675,-0.788887 1.52136,-1.400144 1.52136,-1.358349 0,0.0418 0.50601,-0.417488 1.12448,-1.02063 0.61846,-0.603142 1.08479,-1.228088 1.03628,-1.388768 -0.0485,-0.160681 10e-4,-0.20259 0.11082,-0.09313 0.24343,0.243425 1.168,-0.551722 1.168,-1.004495 0,-0.190637 -2.12023,-1.013175 -5.09323,-1.975906 -5.29938,-1.71607 -6.54844,-2.220118 -6.54844,-2.642572 0,-0.363611 1.0213,-0.844211 6.41874,-3.020525 12.76066,-5.145255 22.17565,-9.583773 32.34272,-15.2473656 2.1333,-1.1883621 2.64145,-1.2672842 3.06492,-0.476025 0.75845,1.4171856 -0.77664,16.1139556 -2.69018,25.7553736 -1.78125,8.974873 -4.54603,17.656304 -6.12943,19.24646 -0.5325,0.534776 -1.68776,0.625045 -1.71836,0.134268 -0.0571,-0.916054 -1.47063,-5.719393 -2.19555,-7.460722 -0.94959,-2.281033 -2.70537,-5.115395 -3.3133,-5.348678 -0.68569,-0.263124 -1.43985,0.300559 -7.99569,5.976255 -7.31706,6.334707 -9.98703,8.502151 -14.84473,12.05076 -6.09149,4.449895 -14.72497,10.019748 -20.9308,13.503402 -1.23693,0.694352 -3.97537,2.241261 -6.08542,3.437576 -12.72474,7.214419 -31.79596,15.828871 -49.60937,22.408507 -21.422155,7.912571 -34.941676,12.136081 -45.905206,14.340781 -11.632809,2.33929 -21.963538,3.04497 -31.220832,2.13267 z m 16.597091,-13.50926 c -0.08792,-0.0879 -0.316122,-0.0973 -0.507118,-0.0209 -0.211067,0.0845 -0.148372,0.14715 0.159852,0.15985 0.278915,0.0115 0.435185,-0.051 0.347266,-0.13896 z m 1.852083,-0.26459 c -0.08792,-0.0879 -0.316122,-0.0973 -0.507118,-0.0209 -0.211066,0.0845 -0.148372,0.14716 0.159853,0.15986 0.278915,0.0115 0.435184,-0.0511 0.347265,-0.13897 z M 107.41674,74.845192 c 0.21828,-0.141064 0.27782,-0.25648 0.1323,-0.25648 -0.14553,0 -0.44318,0.115416 -0.66146,0.25648 -0.21828,0.141065 -0.27782,0.256481 -0.13229,0.256481 0.14552,0 0.44317,-0.115416 0.66145,-0.256481 z m 2.77626,-1.319885 c 0.0927,-0.149982 -0.0135,-0.194339 -0.24897,-0.103985 -0.45837,0.175893 -0.54224,0.365537 -0.16165,0.365537 0.13693,0 0.32171,-0.117699 0.41062,-0.261552 z m 4.36749,-2.159865 c 0,-0.134267 -0.23682,-0.116291 -0.52916,0.04017 -0.29105,0.155761 -0.52917,0.327397 -0.52917,0.381414 0,0.05402 0.23812,0.03594 0.52917,-0.04017 0.29104,-0.07611 0.52916,-0.247745 0.52916,-0.381413 z m 0.8275,-0.422853 c 0.32911,-0.419644 0.31975,-0.429003 -0.0999,-0.0999 -0.25466,0.199719 -0.46302,0.408078 -0.46302,0.46302 0,0.217762 0.21727,0.0776 0.56291,-0.363125 z m 3.54513,-1.867131 c -0.0815,-0.08146 -0.29496,-1.68e-4 -0.47443,0.180653 -0.25937,0.261307 -0.22897,0.291698 0.14811,0.148113 0.26094,-0.09936 0.40778,-0.247304 0.32632,-0.328766 z m 3.97732,-2.05007 c 0.48427,-0.387979 0.47583,-0.393485 -0.14786,-0.09645 -0.8099,0.385712 -0.96,0.507924 -0.62384,0.507924 0.14196,0 0.48923,-0.185162 0.7717,-0.411472 z m 7.36142,-3.967895 c 0.0904,-0.235459 0.046,-0.341662 -0.10398,-0.248969 -0.14386,0.08891 -0.26155,0.273685 -0.26155,0.410617 0,0.380585 0.18964,0.296721 0.36553,-0.161648 z m 11.67113,-6.730102 c 0.0927,-0.149982 -0.0135,-0.194339 -0.24896,-0.103984 -0.45837,0.175892 -0.54224,0.365536 -0.16165,0.365536 0.13693,0 0.32171,-0.117698 0.41061,-0.261552 z m 3.43959,-2.116667 c 0.0927,-0.149982 -0.0135,-0.194338 -0.24897,-0.103984 -0.45837,0.175893 -0.54224,0.365537 -0.16165,0.365537 0.13693,0 0.32171,-0.117699 0.41062,-0.261553 z m 4.66583,-3.111884 c 0.3291,-0.419644 0.31975,-0.429003 -0.0999,-0.0999 -0.25466,0.199719 -0.46302,0.408078 -0.46302,0.463021 0,0.217761 0.21727,0.0776 0.56292,-0.363126 z M 1.2892131,94.292161 C 0.90912036,94.085585 0.47046871,93.584336 0.3144316,93.178275 0.13139513,92.701953 -0.02575102,86.994782 -0.12844251,77.094151 -0.21598616,68.653943 -0.33867295,59.724256 -0.40107982,57.250402 -0.46348668,54.776548 -0.59336339,48.194614 -0.68969472,42.623883 -0.88902267,31.096974 -0.97951017,31.616382 1.2738601,31.352864 2.8433827,31.169318 43.867741,30.899027 74.079245,30.873183 c 26.132345,-0.02236 89.916285,0.302346 90.421345,0.460303 1.10123,0.344405 -0.12612,1.946331 -5.86938,7.660667 -5.53463,5.506754 -11.62559,10.222652 -16.20567,12.547165 l -1.63599,0.830311 -49.693172,0.07714 C 52.783637,52.508249 40.953652,52.601877 39.440211,52.8576 35.985755,53.441293 32.71035,54.385037 29.741859,55.65199 25.314873,57.541428 22.58893,59.408988 19.018608,62.998555 12.520759,69.531426 7.9360445,78.225454 4.6501932,90.245484 4.1447521,92.094447 3.6009543,93.850619 3.4417535,94.148088 3.1062431,94.774995 2.2794317,94.830335 1.2892131,94.292161 Z M 138.03675,31.822842 c -0.0879,-0.08792 -0.31612,-0.09732 -0.50712,-0.02089 -0.21106,0.08446 -0.14837,0.147157 0.15985,0.159853 0.27892,0.01149 0.43519,-0.05105 0.34727,-0.138965 z m 4.50343,-0.02253 c -0.25466,-0.06655 -0.67138,-0.06655 -0.92604,0 -0.25466,0.06655 -0.0463,0.121 0.46302,0.121 0.50932,0 0.71768,-0.05445 0.46302,-0.121 z m 1.58199,0.02253 c -0.0879,-0.08792 -0.31613,-0.09732 -0.50712,-0.02089 -0.21107,0.08446 -0.14837,0.147157 0.15985,0.159853 0.27892,0.01149 0.43519,-0.05105 0.34727,-0.138965 z M 41.601643,31.542883 c -0.181901,-0.0734 -0.479557,-0.0734 -0.661459,0 -0.181901,0.0734 -0.03307,0.133452 0.33073,0.133452 0.363802,0 0.51263,-0.06005 0.330729,-0.133452 z m 4.233333,0 c -0.181901,-0.0734 -0.479557,-0.0734 -0.661458,0 -0.181901,0.0734 -0.03307,0.133452 0.330729,0.133452 0.363802,0 0.51263,-0.06005 0.330729,-0.133452 z m 2.248958,-0.0072 c -0.254661,-0.06655 -0.67138,-0.06655 -0.926042,0 -0.254661,0.06655 -0.0463,0.121 0.463021,0.121 0.509323,0 0.717683,-0.05445 0.463021,-0.121 z m 1.846571,0.02253 c -0.08792,-0.08792 -0.316122,-0.09732 -0.507118,-0.02089 -0.211067,0.08446 -0.148372,0.147156 0.159853,0.159852 0.278914,0.01149 0.435184,-0.05105 0.347265,-0.138964 z m 6.097922,-0.03247 c -0.541856,-0.05685 -1.494356,-0.05764 -2.116666,-0.0017 -0.62231,0.05589 -0.178973,0.102408 0.985194,0.103369 1.164166,9.62e-4 1.673329,-0.04477 1.131472,-0.101621 z m 2.247,0.01877 c -0.179131,-0.07248 -0.536319,-0.07689 -0.79375,-0.0098 -0.257431,0.06708 -0.110868,0.126381 0.325694,0.131773 0.436563,0.0054 0.647188,-0.04949 0.468056,-0.12197 z m 12.821744,0.0137 c -0.08792,-0.08792 -0.316122,-0.09732 -0.507118,-0.02089 -0.211067,0.08446 -0.148372,0.147156 0.159852,0.159852 0.278915,0.01149 0.435185,-0.05105 0.347266,-0.138964 z m 2.116666,0 c -0.08792,-0.08792 -0.316122,-0.09732 -0.507118,-0.02089 -0.211066,0.08446 -0.148372,0.147156 0.159853,0.159852 0.278915,0.01149 0.435184,-0.05105 0.347265,-0.138964 z m 8.466667,0 c -0.08792,-0.08792 -0.316122,-0.09732 -0.507119,-0.02089 -0.211066,0.08446 -0.148372,0.147156 0.159853,0.159852 0.278915,0.01149 0.435184,-0.05105 0.347266,-0.138964 z m 8.344922,-0.0137 c -0.179132,-0.07248 -0.536319,-0.07689 -0.79375,-0.0098 -0.257431,0.06708 -0.110869,0.126381 0.325693,0.131773 0.436563,0.0054 0.647188,-0.04949 0.468057,-0.12197 z m 24.865794,-0.02472 c -4.11096,-0.04101 -10.83799,-0.04101 -14.948955,0 -4.110964,0.04101 -0.747448,0.07456 7.474475,0.07456 8.22193,0 11.58545,-0.03355 7.47448,-0.07456 z M 58.979054,88.793648 c -0.2287,-0.322849 -1.374621,-2.194342 -2.546492,-4.158873 -1.171871,-1.964531 -3.401131,-5.693619 -4.953911,-8.286862 -1.983431,-3.312458 -2.775036,-4.866851 -2.661199,-5.22552 0.158657,-0.499883 0.715032,-0.510449 26.668685,-0.506482 16.401598,0.0025 26.657943,0.100502 26.903523,0.257051 0.60949,0.388537 0.0463,1.090077 -1.47216,1.833631 -1.286405,0.629947 -5.096599,2.34924 -9.243464,4.170978 -10.637443,4.673081 -30.5334,12.52777 -31.691392,12.51139 -0.323275,-0.0046 -0.774891,-0.272464 -1.00359,-0.595313 z M 181.25697,87.733987 c -0.1265,-0.332724 -0.49313,-1.493584 -0.81473,-2.579687 -1.41295,-4.77176 -4.67017,-10.72549 -8.39044,-15.336533 -1.65616,-2.052714 -7.20835,-7.546559 -7.54148,-7.462239 -0.10379,0.02627 -0.10379,-0.180982 0,-0.460563 0.10379,-0.27958 2.74856,-2.500517 5.87725,-4.935416 5.39332,-4.197329 13.18068,-10.548159 13.51711,-11.023605 0.8035,-1.135539 0.9772,4.115844 0.64117,19.384249 -0.0721,3.274219 -0.19707,9.341313 -0.27779,13.482432 -0.13421,6.885051 -0.19145,7.601608 -0.66898,8.374268 -0.80482,1.302226 -1.95481,1.575763 -2.34211,0.557094 z M 64.499486,68.030246 47.379101,67.962174 46.514458,66.707329 c -0.475553,-0.690164 -2.143803,-3.383036 -3.707221,-5.984159 -2.353439,-3.915516 -2.795879,-4.816572 -2.571196,-5.236397 0.265727,-0.496515 1.027765,-0.505476 36.570313,-0.430059 52.921606,0.112292 55.663836,0.143251 55.850826,0.630531 0.0921,0.239947 -0.12863,0.664885 -0.54644,1.052103 -0.88596,0.82108 -6.87235,4.465736 -13.68961,8.334563 l -5.26749,2.989324 -15.766887,0.01754 c -8.671786,0.0096 -23.471056,-0.01309 -32.887267,-0.05053 z"
       id="path1" /></g></svg>
