<?xml version="1.0" encoding="UTF-8" standalone="no"?>
<!-- Created with Inkscape (http://www.inkscape.org/) -->

<svg
   version="1.1"
   id="svg1"
   width="813.33331"
   height="818.66669"
   viewBox="0 0 813.33331 818.66669"
   xmlns="http://www.w3.org/2000/svg"
   xmlns:svg="http://www.w3.org/2000/svg">
  <defs
     id="defs1" />
  <g
     id="g1">
    <path
       style="fill:#2563eb;fill-opacity:1"
       d="M 157.33333,816.45055 C 104.63559,812.78882 57.921037,786.37647 29.69494,744.28397 16.346806,724.37841 5.6617606,695.8995 2.8065739,672.61826 1.7887706,664.31907 1.3396974,583.91174 1.3370893,409.50446 1.332963,133.57826 1.0174583,145.01545 9.382938,117.83885 17.317606,92.06182 30.017645,71.216262 49.945667,51.260098 78.338187,22.827484 111.58358,7.4037891 154.38562,2.8067739 c 9.49148,-1.019402 87.63744,-1.4734405 253.59837,-1.4734405 208.46114,0 241.94031,0.2693409 255.61437,2.0564253 19.02036,2.4857995 28.35517,4.7259551 42.40162,10.1754883 24.24082,9.404591 38.92125,19.087003 58.08268,38.308171 20.60128,20.665517 32.88898,41.102299 40.56498,67.467252 7.72106,26.51973 7.44959,14.96346 6.97662,296.99644 -0.43166,257.4045 -0.45149,259.06999 -3.22679,270.99624 -7.24901,31.15117 -20.3349,55.8297 -41.50174,78.26767 -26.99848,28.61981 -64.14253,46.15227 -106.70369,50.36546 -12.36609,1.22414 -485.65125,1.67975 -502.85871,0.48407 z M 555.99999,632.00002 c 2.44913,-2.44914 2.66666,-4.44445 2.66666,-24.46002 0,-19.78578 -0.23546,-22.00644 -2.55609,-24.10658 -2.03312,-1.83995 -6.4661,-2.53601 -21.66667,-3.40208 -30.33499,-1.72836 -44.32933,-6.81456 -53.29937,-19.3715 -7.80011,-10.9192 -7.81933,-11.346 -7.73172,-171.77712 0.0437,-80.05216 0.5659,-148.51342 1.16042,-152.13614 0.76738,-4.67614 2.13642,-7.49465 4.71967,-9.71667 l 3.63873,-3.12991 44.97492,0.38333 44.97492,0.38334 6.53884,4.04441 c 10.43549,6.45458 15.01517,17.45743 19.96039,47.95559 3.21729,19.84166 2.51351,19.33334 26.76701,19.33334 17.40784,0 19.43272,-0.2471 21.85228,-2.66667 2.59964,-2.59964 2.66667,-4.44444 2.66667,-73.39394 v -70.72728 l -3.27273,-3.27272 -3.27272,-3.27273 -237.45454,0 -237.45454,0 -3.27273,3.27273 -3.27273,3.27272 0,70.72728 c 0,68.9495 0.067,70.7943 2.66667,73.39394 2.41957,2.41957 4.44444,2.66667 21.85229,2.66667 24.97149,0 23.83602,0.93401 27.55547,-22.66667 4.62402,-29.34037 8.66527,-38.49357 19.92557,-45.13031 l 6,-3.53636 h 45.78159 45.78158 l 3.11704,3.62316 c 2.01026,2.33668 3.41738,6.12411 3.9629,10.66667 0.46523,3.87393 0.64196,74.24351 0.39274,156.37684 -0.33997,112.04434 -0.85465,150.51011 -2.06116,154.04603 -2.72239,7.97852 -9.24719,17.00503 -14.8476,20.54041 -8.36907,5.28317 -22.98516,8.69943 -44.12709,10.31396 -13.62295,1.04033 -20.02252,2.07253 -21.66667,3.49466 -2.04942,1.77267 -2.33333,4.74192 -2.33333,24.40266 0,21.61993 0.10121,22.4553 2.96334,24.46002 2.63837,1.84798 19.01502,2.0756 149.33333,2.0756 144.59221,0 146.40238,-0.0324 149.03666,-2.66666 z"
       id="path1" />
  </g>
</svg>
