<?xml version="1.0" encoding="UTF-8" standalone="no"?>
<!-- Created with Inkscape (http://www.inkscape.org/) -->

<svg
   version="1.1"
   id="svg1"
   width="757.33331"
   height="756"
   viewBox="0 0 757.33331 756"
   sodipodi:docname="logo_light.svg"
   inkscape:export-filename="logo_light.svg"
   inkscape:export-xdpi="96"
   inkscape:export-ydpi="96"
   inkscape:version="1.4.2 (f4327f4, 2025-05-13)"
   xmlns:inkscape="http://www.inkscape.org/namespaces/inkscape"
   xmlns:sodipodi="http://sodipodi.sourceforge.net/DTD/sodipodi-0.dtd"
   xmlns="http://www.w3.org/2000/svg"
   xmlns:svg="http://www.w3.org/2000/svg">
  <defs
     id="defs1" />
  <sodipodi:namedview
     id="namedview1"
     pagecolor="#ffffff"
     bordercolor="#000000"
     borderopacity="0.25"
     inkscape:showpageshadow="2"
     inkscape:pageopacity="0.0"
     inkscape:pagecheckerboard="0"
     inkscape:deskcolor="#d1d1d1"
     inkscape:zoom="0.97222222"
     inkscape:cx="378.51429"
     inkscape:cy="378"
     inkscape:window-width="1680"
     inkscape:window-height="979"
     inkscape:window-x="-8"
     inkscape:window-y="-8"
     inkscape:window-maximized="1"
     inkscape:current-layer="g1" />
  <g
     inkscape:groupmode="layer"
     inkscape:label="Image"
     id="g1">
    <path
       style="fill:#4caea1;fill-opacity:1"
       d="M 128.66666,753.24241 C 109.16355,749.93683 86.22596,741.02803 69.786529,730.37377 36.857464,709.03271 15.324162,678.80375 3.6131747,637.47804 l -2.8748342,-10.14471 -0.42040455,-244 C 0.02837586,215.27459 0.33863744,136.751 1.3148094,131.03628 6.9660472,97.952701 22.093972,68.61348 45.51558,45.312942 63.538727,27.38296 83.961147,14.936048 107.33333,7.6366988 130.57478,0.37817802 119.31674,0.66666667 379.33332,0.66666667 c 229.16549,0 241.89423,0.12335384 252.45804,2.44656393 31.7478,6.9820284 55.07185,19.0067744 76.64148,39.5126394 24.32261,23.12306 38.8934,49.460573 45.92187,83.00628 2.14467,10.23619 2.31194,28.54281 2.31194,253.03452 0,229.34752 -0.12724,242.57832 -2.43366,253.06142 -8.7314,39.68584 -30.22792,72.5635 -62.28832,95.26628 -12.29532,8.70662 -34.2809,18.96746 -49.94469,23.30955 L 628.66665,754 381.99999,754.18617 c -135.66666,0.1024 -249.66666,-0.3223 -253.33333,-0.94376 z m 384.33333,-164.3372 c 1.21054,-0.77179 1.66666,-6.4698 1.66666,-20.82064 0,-14.20707 -0.46824,-20.13232 -1.66666,-21.09021 -0.91667,-0.73269 -8.28795,-2.01169 -16.38062,-2.84223 -22.8723,-2.34736 -38.25228,-7.53498 -46.50134,-15.68476 -2.11586,-2.09039 -5.70799,-7.7007 -7.98253,-12.46737 l -4.13551,-8.66667 -0.36473,-131.63436 c -0.40558,-146.38128 -0.8161,-139.28224 8.27392,-143.08029 3.67001,-1.53343 11.67188,-1.95201 37.31569,-1.95201 38.75734,0 44.21242,0.86405 52.25423,8.27673 6.86773,6.33045 9.74002,13.32744 13.8435,33.72327 1.62295,8.06666 3.56276,15.41666 4.31069,16.33333 1.86808,2.28951 35.81778,2.34892 38.10003,0.0667 2.30279,-2.3028 2.30279,-121.16387 0,-123.46667 -2.32647,-2.32647 -425.14019,-2.32647 -427.46666,0 -1.19674,1.19674 -1.6,16.62762 -1.6,61.22428 0,32.79336 0.3642,60.57336 0.80932,61.73334 0.68539,1.78609 3.70709,2.10905 19.73333,2.10905 20.26271,0 22.10774,-0.54989 22.14491,-6.6 0.0421,-6.86131 5.44408,-28.92986 8.7318,-35.67213 7.69971,-15.79014 14.03081,-17.73038 57.82264,-17.72044 18.0169,0.004 34.94631,0.61526 37.62092,1.35816 9.8675,2.74079 9.22754,-7.67053 8.82837,143.62508 l -0.35796,135.67599 -3.61335,6.85047 c -8.39965,15.92469 -22.57085,22.49731 -56.56824,26.23644 l -14.44122,1.58829 -0.94509,5.32907 c -1.64506,9.27606 -1.2633,33.26842 0.5679,35.69051 1.14516,1.51466 4.16993,2.33891 9.66667,2.63415 17.46831,0.93826 258.77489,0.23654 260.33333,-0.75705 z"
       id="path1" />
  </g>
</svg>
