<?xml version="1.0" encoding="UTF-8" standalone="no"?>
<!-- Created with Inkscape (http://www.inkscape.org/) -->

<svg
   version="1.1"
   id="svg1"
   width="624"
   height="605.33331"
   viewBox="0 0 624 605.33331"
   xmlns="http://www.w3.org/2000/svg"
   xmlns:svg="http://www.w3.org/2000/svg">
  <defs
     id="defs1" />
  <g
     id="g1">
    <path
       style="fill:#7fa6e6;fill-opacity:1"
       d="m 148,591.35872 c 0,-13.42656 0.11765,-13.99799 3,-14.57105 1.65,-0.32804 8.4,-1.58509 15,-2.79343 32.82196,-6.00911 52.9257,-17.15724 60.67687,-33.64715 8.63461,-18.36934 15.26218,-73.97587 18.63454,-156.3471 2.62986,-64.23545 1.41129,-207.69276 -2.06793,-243.45026 -0.91952,-9.45026 -0.91952,-9.45026 15.14328,-14.95766 C 363.07616,89.697555 478.24574,68.657326 607,61.904227 c 17,-0.891642 17,-0.891642 17,24.744715 0,23.739688 -0.17039,25.570968 -2.30312,24.752568 -4.48803,-1.72222 -31.92096,-5.92427 -47.69688,-7.30599 -57.15228,-5.005629 -134.39171,4.54692 -182.33183,22.5498 -9.10788,3.42026 -8.40817,1.19011 -10.25577,32.68801 -3.84902,65.61814 -2.70575,236.44201 1.97657,295.33332 3.65767,46.00391 8.77923,76.5278 15.10097,90 9.11663,19.42835 27.7442,28.50297 63.17673,30.77725 C 476,576.3639 476,576.3639 476,590.85944 c 0,14.49553 0,14.49553 -77,14.15137 -77,-0.34416 -77,-0.34416 -77.33709,-232.82109 -0.33708,-232.47693 -0.33708,-232.47693 -4,-231.59279 -2.0146,0.48628 -5.91291,1.47403 -8.66291,2.195 -5,1.31085 -5,1.31085 -5,231.92612 0,230.61526 0,230.61526 -78,230.61526 -78,0 -78,0 -78,-13.97459 z M 0,79.320546 C 0,-0.3108724 0,-0.3108724 3.6666667,0.50197058 40.632319,8.6966809 97.523958,14.311934 180,17.906221 271.25222,21.882972 317.7404,21.873513 568.33333,17.827209 624,16.928363 624,16.928363 624,32.919567 c 0,15.991203 0,15.991203 -26.21441,16.869151 -14.41793,0.482871 -34.66793,0.883751 -45,0.890845 C 478.36283,50.730662 341.35474,65.84928 250.66667,84.017892 147.37273,104.71198 82.301266,124.11021 1.6666667,158.24639 0.34406157,158.80631 0,142.5131 0,79.320546 Z"
       id="path1" />
  </g>
</svg>
